<svg width="142" height="40" viewBox="0 0 142 40" fill="none" xmlns="http://www.w3.org/2000/svg">
<rect width="40" height="40" rx="8" fill="#E8D24D"/>
<path d="M5.28125 28.1406L13.75 16.8594L19.2812 24.2031H26.8438L22.5 18.4531L20.2812 21.4219L17.8125 18.1094L22.5 11.8594L34.7188 28.1406H5.28125V28.1406M22.375 24.2031V24.2031V24.2031V24.2031V24.2031V24.2031M12.5 24.2031H15L13.75 22.5156L12.5 24.2031V24.2031M12.5 24.2031H13.75H15H12.5V24.2031" fill="#6B4191"/>
<path d="M57.0635 20.2111V18.5596H67.3273V20.2111H57.0635ZM72.9771 25.4957L75.2238 26.376V27H65.1839V26.376L67.6836 25.5257L61.2015 10.258L61.8948 10.1544L55.8339 25.5326L58.2436 26.3803V27H51.6383V26.3803L53.9333 25.5226L61.7005 6.49439H64.7105L72.9771 25.4957ZM80.5702 13.0982C81.3692 13.0982 82.0572 13.16 82.634 13.2836C83.2109 13.4071 83.8206 13.602 84.4633 13.8682L84.7157 17.5824H83.8439L81.8893 13.8795L83.1295 15.1358C82.7188 14.8418 82.315 14.626 81.9181 14.4884C81.5211 14.3507 81.118 14.2819 80.7087 14.2819C79.9457 14.2819 79.3629 14.4189 78.9604 14.6928C78.5579 14.9667 78.3566 15.361 78.3566 15.8758C78.3566 16.2256 78.4472 16.5295 78.6283 16.7876C78.8094 17.0456 79.133 17.292 79.5989 17.5267C80.0649 17.7615 80.7249 18.016 81.579 18.2903C82.2214 18.4928 82.7799 18.7331 83.2545 19.0113C83.7291 19.2894 84.1226 19.6093 84.4352 19.9711C84.7478 20.3329 84.9825 20.7425 85.1394 21.1998C85.2962 21.6571 85.3747 22.1686 85.3747 22.7344C85.3747 23.7417 85.1155 24.5915 84.597 25.2838C84.0786 25.9761 83.3744 26.5014 82.4843 26.8597C81.5942 27.218 80.5828 27.3972 79.45 27.3972C78.6709 27.3972 77.952 27.3349 77.2933 27.2102C76.6347 27.0856 76.0354 26.9034 75.4954 26.6638L74.978 22.6617H75.8158L78.1561 26.7451L76.3328 25.598C76.6753 25.7499 77.0008 25.8698 77.3093 25.9575C77.6178 26.0452 77.9214 26.1081 78.2202 26.1463C78.519 26.1845 78.8107 26.2037 79.0953 26.2037C79.9575 26.2037 80.6537 26.0362 81.184 25.7012C81.7142 25.3662 81.9793 24.8524 81.9793 24.1599C81.9793 23.8582 81.9162 23.5928 81.7901 23.3637C81.664 23.1346 81.4654 22.9259 81.1943 22.7377C80.9232 22.5495 80.5741 22.3655 80.1471 22.1859C79.72 22.0063 79.2033 21.8197 78.5969 21.6262C77.7934 21.3668 77.1387 21.0428 76.6326 20.6542C76.1266 20.2655 75.7548 19.8043 75.5175 19.2704C75.2801 18.7366 75.1614 18.1302 75.1614 17.4513C75.1614 16.5254 75.4076 15.7391 75.9001 15.0925C76.3926 14.4459 77.0501 13.9519 77.8726 13.6104C78.6952 13.269 79.5943 13.0982 80.5702 13.0982ZM94.5667 13.0982C95.6007 13.0982 96.429 13.207 97.0516 13.4245C97.6742 13.642 98.1253 13.9207 98.4048 14.2605C98.6844 14.6004 98.8242 14.9601 98.8242 15.3397C98.8242 15.6962 98.7389 16.0101 98.5684 16.2815C98.3979 16.5528 98.1698 16.7631 97.8841 16.9123C97.5984 17.0615 97.2833 17.1361 96.9389 17.1361C96.6494 17.1361 96.3705 17.0491 96.102 16.8751C95.8335 16.7011 95.572 16.4861 95.3177 16.2303C95.0633 15.9745 94.8088 15.7188 94.554 15.4633C94.2993 15.2078 94.0412 14.9931 93.7799 14.819C93.5185 14.645 93.2487 14.558 92.9704 14.558C92.5294 14.558 92.1199 14.6929 91.7418 14.9627C91.3636 15.2324 91.0602 15.6648 90.8316 16.2598C90.6029 16.8547 90.4886 17.641 90.4886 18.6185C90.4886 19.9326 90.6688 21.0155 91.0292 21.8672C91.3896 22.7189 91.9041 23.3521 92.5729 23.7667C93.2416 24.1814 94.0337 24.3887 94.9491 24.3887C95.6137 24.3887 96.2207 24.2913 96.7701 24.0967C97.3194 23.902 97.8787 23.5713 98.4479 23.1045L98.9518 23.7304C98.3113 24.6033 97.6699 25.3089 97.0278 25.8471C96.3857 26.3854 95.7299 26.7783 95.0606 27.0258C94.3913 27.2734 93.6945 27.3972 92.9702 27.3972C91.6413 27.3972 90.4823 27.1056 89.4933 26.5223C88.5042 25.939 87.737 25.1356 87.1916 24.1121C86.6462 23.0886 86.3735 21.9178 86.3735 20.5996C86.3735 19.5487 86.5633 18.5682 86.9429 17.6582C87.3226 16.7482 87.8682 15.9517 88.5798 15.2688C89.2915 14.5858 90.1523 14.0533 91.1624 13.6713C92.1725 13.2893 93.3072 13.0982 94.5667 13.0982ZM106.413 13.0982C107.591 13.0982 108.593 13.3421 109.419 13.8297C110.244 14.3173 110.892 15.0191 111.362 15.9349C111.832 16.8508 112.119 17.9514 112.223 19.2367H102.605L102.614 17.9863L110.205 17.6609L108.143 18.4603C108.1 17.5415 107.997 16.7865 107.834 16.1952C107.67 15.604 107.441 15.1647 107.145 14.8775C106.849 14.5904 106.476 14.4468 106.027 14.4468C105.558 14.4468 105.141 14.5881 104.778 14.8706C104.415 15.1532 104.13 15.6317 103.924 16.306C103.718 16.9804 103.615 17.909 103.615 19.0918C103.615 20.2586 103.804 21.2342 104.184 22.0187C104.563 22.8031 105.103 23.3943 105.801 23.792C106.5 24.1898 107.326 24.3887 108.28 24.3887C108.726 24.3887 109.145 24.3461 109.536 24.2609C109.928 24.1757 110.313 24.0367 110.693 23.844C111.073 23.6513 111.457 23.3976 111.846 23.0829L112.332 23.724C111.752 24.5004 111.148 25.1629 110.521 25.7116C109.894 26.2603 109.229 26.6784 108.525 26.9659C107.82 27.2534 107.059 27.3972 106.24 27.3972C104.886 27.3972 103.703 27.1008 102.691 26.5079C101.679 25.9151 100.893 25.0985 100.334 24.058C99.7749 23.0176 99.4954 21.8246 99.4954 20.479C99.4954 19.1463 99.7614 17.9203 100.293 16.8008C100.825 15.6814 101.607 14.7844 102.637 14.11C103.667 13.4355 104.926 13.0982 106.413 13.0982ZM119.19 16.2527V25.7859L120.769 26.4276V27H113.018V26.4276L114.797 25.7039V16.8482C114.581 16.5591 114.32 16.2979 114.015 16.0647C113.71 15.8314 113.324 15.5988 112.858 15.3667V14.8465L118.139 13.0853H118.583L119.19 16.2527ZM122.21 26.4276L123.79 25.7859V18.2398C123.79 17.7688 123.71 17.3834 123.55 17.0835C123.39 16.7835 123.147 16.5622 122.822 16.4195C122.497 16.2768 122.084 16.2054 121.584 16.2054C121.006 16.2054 120.471 16.2884 119.977 16.4544C119.484 16.6204 119.068 16.8362 118.731 17.1018L118.238 16.5537C118.903 15.8281 119.497 15.2394 120.022 14.7877C120.547 14.336 121.035 13.9897 121.485 13.7489C121.935 13.508 122.38 13.343 122.821 13.2537C123.261 13.1645 123.728 13.1198 124.222 13.1198C125.556 13.1198 126.55 13.5193 127.203 14.3181C127.856 15.1169 128.182 16.3333 128.182 17.9674V25.7039L129.982 26.4276V27H122.21V26.4276ZM136.158 22.8677C136.158 23.4351 136.358 23.8728 136.758 24.1807C137.159 24.4886 137.736 24.6425 138.489 24.6425C138.879 24.6425 139.304 24.6016 139.764 24.5196C140.225 24.4377 140.733 24.31 141.291 24.1366V24.978C140.525 25.5631 139.831 26.0314 139.207 26.3829C138.584 26.7344 138.015 26.9888 137.499 27.1461C136.984 27.3033 136.5 27.3819 136.047 27.3819C135.201 27.3819 134.458 27.2389 133.817 26.9527C133.177 26.6666 132.677 26.2216 132.317 25.6176C131.957 25.0136 131.777 24.2429 131.777 23.3055V16.2088L129.729 14.63V14.0666C129.98 13.9064 130.28 13.7198 130.627 13.5068C130.975 13.2938 131.349 13.0647 131.75 12.8194C132.151 12.5741 132.56 12.322 132.975 12.0631C133.391 11.8043 133.798 11.5516 134.195 11.3052C134.592 11.0588 134.959 10.8295 135.295 10.6173H136.158V13.8618V22.8677ZM134.389 15.525V13.4954H140.758L140.457 15.525H134.389Z" fill="white"/>
</svg>
